<svg width="648" height="48" viewBox="0 0 648 48" fill="none" xmlns="http://www.w3.org/2000/svg">
<rect x="0.5" y="0.5" width="647" height="47" rx="7.5" fill="white"/>
<rect x="0.5" y="0.5" width="647" height="47" rx="7.5" stroke="#EEE4D3"/>
<path d="M26.496 18.64V30H25.056V24.832H18.8V30H17.36V18.64H18.8V23.552H25.056V18.64H26.496ZM28.2613 27.584C28.2613 27.0507 28.4106 26.592 28.7093 26.208C29.0186 25.8133 29.4399 25.5093 29.9733 25.296C30.5066 25.0827 31.1253 24.976 31.8293 24.976C32.2026 24.976 32.5973 25.008 33.0133 25.072C33.4293 25.1253 33.7973 25.2107 34.1173 25.328V24.72C34.1173 24.08 33.9253 23.5787 33.5413 23.216C33.1573 22.8427 32.6133 22.656 31.9093 22.656C31.4506 22.656 31.0079 22.7413 30.5813 22.912C30.1653 23.072 29.7226 23.3067 29.2533 23.616L28.7413 22.624C29.2853 22.2507 29.8293 21.9733 30.3733 21.792C30.9173 21.6 31.4826 21.504 32.0693 21.504C33.1359 21.504 33.9786 21.8027 34.5973 22.4C35.2159 22.9867 35.5253 23.808 35.5253 24.864V28.4C35.5253 28.5707 35.5573 28.6987 35.6213 28.784C35.6959 28.8587 35.8133 28.9013 35.9733 28.912V30C35.8346 30.0213 35.7119 30.0373 35.6053 30.048C35.5093 30.0587 35.4293 30.064 35.3653 30.064C35.0346 30.064 34.7839 29.9733 34.6133 29.792C34.4533 29.6107 34.3626 29.4187 34.3413 29.216L34.3093 28.688C33.9466 29.1573 33.4719 29.52 32.8853 29.776C32.2986 30.032 31.7173 30.16 31.1413 30.16C30.5866 30.16 30.0906 30.048 29.6533 29.824C29.2159 29.5893 28.8746 29.28 28.6293 28.896C28.3839 28.5013 28.2613 28.064 28.2613 27.584ZM33.7013 28.176C33.8293 28.0267 33.9306 27.8773 34.0053 27.728C34.0799 27.568 34.1173 27.4347 34.1173 27.328V26.288C33.7866 26.16 33.4399 26.064 33.0773 26C32.7146 25.9253 32.3573 25.888 32.0052 25.888C31.2906 25.888 30.7093 26.032 30.2613 26.32C29.8239 26.5973 29.6053 26.9813 29.6053 27.472C29.6053 27.7387 29.6746 28 29.8133 28.256C29.9626 28.5013 30.1759 28.704 30.4533 28.864C30.7413 29.024 31.0933 29.104 31.5093 29.104C31.9466 29.104 32.3626 29.0187 32.7573 28.848C33.1519 28.6667 33.4666 28.4427 33.7013 28.176ZM37.7606 30V21.664H39.1686V28.112L43.8406 21.648H45.1206V30H43.7126V23.68L39.1046 30H37.7606ZM41.4566 20.704C40.6886 20.704 40.1073 20.5227 39.7126 20.16C39.318 19.7867 39.1206 19.328 39.1206 18.784H40.1126C40.1126 19.0827 40.214 19.3333 40.4166 19.536C40.63 19.728 40.9766 19.824 41.4566 19.824C41.926 19.824 42.2566 19.7333 42.4486 19.552C42.6406 19.36 42.758 19.104 42.8006 18.784H43.7926C43.7926 19.328 43.5953 19.7867 43.2006 20.16C42.806 20.5227 42.2246 20.704 41.4566 20.704ZM49.4024 30V22.896H46.5224V21.648H53.6904V22.896H50.8104V30H49.4024ZM55.0888 30V21.664H56.4968V28.112L61.1688 21.648H62.4488V30H61.0408V23.68L56.4328 30H55.0888ZM70.7774 30V22.896H67.8974V21.648H75.0654V22.896H72.1854V30H70.7774ZM80.1278 30.16C79.4984 30.16 78.9278 30.048 78.4158 29.824C77.9038 29.5893 77.4611 29.2747 77.0878 28.88C76.7144 28.4747 76.4264 28.0107 76.2238 27.488C76.0211 26.9653 75.9198 26.416 75.9198 25.84C75.9198 25.2533 76.0211 24.6987 76.2238 24.176C76.4264 23.6533 76.7144 23.1947 77.0878 22.8C77.4611 22.3947 77.9038 22.08 78.4158 21.856C78.9384 21.6213 79.5091 21.504 80.1278 21.504C80.7571 21.504 81.3278 21.6213 81.8398 21.856C82.3518 22.08 82.7944 22.3947 83.1678 22.8C83.5518 23.1947 83.8451 23.6533 84.0478 24.176C84.2504 24.6987 84.3518 25.2533 84.3518 25.84C84.3518 26.416 84.2504 26.9653 84.0478 27.488C83.8451 28.0107 83.5571 28.4747 83.1838 28.88C82.8104 29.2747 82.3624 29.5893 81.8398 29.824C81.3278 30.048 80.7571 30.16 80.1278 30.16ZM77.3598 25.856C77.3598 26.432 77.4824 26.9547 77.7278 27.424C77.9838 27.8933 78.3198 28.2667 78.7358 28.544C79.1518 28.8107 79.6158 28.944 80.1278 28.944C80.6398 28.944 81.1038 28.8053 81.5198 28.528C81.9464 28.2507 82.2824 27.8773 82.5278 27.408C82.7838 26.928 82.9118 26.4 82.9118 25.824C82.9118 25.248 82.7838 24.7253 82.5278 24.256C82.2824 23.7867 81.9464 23.4133 81.5198 23.136C81.1038 22.8587 80.6398 22.72 80.1278 22.72C79.6158 22.72 79.1518 22.864 78.7358 23.152C78.3198 23.4293 77.9838 23.8027 77.7278 24.272C77.4824 24.7413 77.3598 25.2693 77.3598 25.856ZM86.0419 30V21.648H90.3619C90.8632 21.648 91.2792 21.7493 91.6099 21.952C91.9405 22.144 92.1859 22.3947 92.3459 22.704C92.5165 23.0133 92.6019 23.344 92.6019 23.696C92.6019 24.144 92.4952 24.5493 92.2819 24.912C92.0685 25.264 91.7592 25.5307 91.3539 25.712C91.8339 25.8507 92.2232 26.1013 92.5219 26.464C92.8205 26.816 92.9699 27.2533 92.9699 27.776C92.9699 28.2453 92.8579 28.6453 92.6339 28.976C92.4099 29.3067 92.0952 29.5627 91.6899 29.744C91.2845 29.9147 90.8152 30 90.2819 30H86.0419ZM87.3859 29.008H90.2499C90.5059 29.008 90.7352 28.944 90.9379 28.816C91.1512 28.688 91.3165 28.5173 91.4339 28.304C91.5512 28.0907 91.6099 27.8667 91.6099 27.632C91.6099 27.376 91.5512 27.1467 91.4339 26.944C91.3272 26.7307 91.1725 26.5653 90.9699 26.448C90.7779 26.32 90.5539 26.256 90.2979 26.256H87.3859V29.008ZM87.3859 25.328H89.9939C90.2499 25.328 90.4739 25.264 90.6659 25.136C90.8579 24.9973 91.0072 24.8213 91.1139 24.608C91.2205 24.3947 91.2739 24.1707 91.2739 23.936C91.2739 23.584 91.1565 23.28 90.9219 23.024C90.6979 22.768 90.4045 22.64 90.0419 22.64H87.3859V25.328ZM94.105 27.584C94.105 27.0507 94.2543 26.592 94.553 26.208C94.8623 25.8133 95.2837 25.5093 95.817 25.296C96.3503 25.0827 96.969 24.976 97.673 24.976C98.0463 24.976 98.441 25.008 98.857 25.072C99.273 25.1253 99.641 25.2107 99.961 25.328V24.72C99.961 24.08 99.769 23.5787 99.385 23.216C99.001 22.8427 98.457 22.656 97.753 22.656C97.2943 22.656 96.8517 22.7413 96.425 22.912C96.009 23.072 95.5663 23.3067 95.097 23.616L94.585 22.624C95.129 22.2507 95.673 21.9733 96.217 21.792C96.761 21.6 97.3263 21.504 97.913 21.504C98.9797 21.504 99.8223 21.8027 100.441 22.4C101.06 22.9867 101.369 23.808 101.369 24.864V28.4C101.369 28.5707 101.401 28.6987 101.465 28.784C101.54 28.8587 101.657 28.9013 101.817 28.912V30C101.678 30.0213 101.556 30.0373 101.449 30.048C101.353 30.0587 101.273 30.064 101.209 30.064C100.878 30.064 100.628 29.9733 100.457 29.792C100.297 29.6107 100.206 29.4187 100.185 29.216L100.153 28.688C99.7903 29.1573 99.3157 29.52 98.729 29.776C98.1423 30.032 97.561 30.16 96.985 30.16C96.4303 30.16 95.9343 30.048 95.497 29.824C95.0597 29.5893 94.7183 29.28 94.473 28.896C94.2277 28.5013 94.105 28.064 94.105 27.584ZM99.545 28.176C99.673 28.0267 99.7743 27.8773 99.849 27.728C99.9237 27.568 99.961 27.4347 99.961 27.328V26.288C99.6303 26.16 99.2837 26.064 98.921 26C98.5583 25.9253 98.201 25.888 97.849 25.888C97.1343 25.888 96.553 26.032 96.105 26.32C95.6677 26.5973 95.449 26.9813 95.449 27.472C95.449 27.7387 95.5183 28 95.657 28.256C95.8063 28.5013 96.0197 28.704 96.297 28.864C96.585 29.024 96.937 29.104 97.353 29.104C97.7903 29.104 98.2063 29.0187 98.601 28.848C98.9957 28.6667 99.3103 28.4427 99.545 28.176ZM108.116 30.16C107.434 30.16 106.826 29.9893 106.292 29.648C105.759 29.3067 105.338 28.8747 105.028 28.352V33.408H103.62V21.648H104.868V23.216C105.199 22.704 105.631 22.2933 106.164 21.984C106.698 21.664 107.279 21.504 107.908 21.504C108.484 21.504 109.012 21.6213 109.492 21.856C109.972 22.0907 110.388 22.4107 110.74 22.816C111.092 23.2213 111.364 23.6853 111.556 24.208C111.759 24.72 111.86 25.2587 111.86 25.824C111.86 26.6133 111.7 27.3387 111.38 28C111.071 28.6613 110.634 29.1893 110.068 29.584C109.503 29.968 108.852 30.16 108.116 30.16ZM107.684 28.944C108.1 28.944 108.474 28.8587 108.804 28.688C109.146 28.5067 109.434 28.272 109.668 27.984C109.914 27.6853 110.1 27.3493 110.228 26.976C110.356 26.6027 110.42 26.2187 110.42 25.824C110.42 25.408 110.346 25.0133 110.196 24.64C110.058 24.2667 109.855 23.936 109.588 23.648C109.332 23.36 109.028 23.136 108.676 22.976C108.335 22.8053 107.962 22.72 107.556 22.72C107.3 22.72 107.034 22.768 106.756 22.864C106.49 22.96 106.234 23.0987 105.988 23.28C105.743 23.4507 105.535 23.648 105.364 23.872C105.194 24.096 105.082 24.336 105.028 24.592V26.976C105.188 27.3387 105.402 27.6693 105.668 27.968C105.935 28.2667 106.244 28.5067 106.596 28.688C106.948 28.8587 107.311 28.944 107.684 28.944Z" fill="#BDAA8A"/>
<path d="M625.5 29.5L630 34L625.5 29.5Z" fill="#BDAA8A"/>
<path d="M625.5 29.5L630 34" stroke="#BDAA8A" stroke-linecap="round" stroke-linejoin="round"/>
<path d="M628 23C628 18.0294 623.971 14 619 14C614.029 14 610 18.0294 610 23C610 27.9706 614.029 32 619 32C623.971 32 628 27.9706 628 23Z" stroke="#BDAA8A" stroke-linejoin="round"/>
</svg>
