<svg width="20" height="20" viewBox="0 0 20 20" fill="none" xmlns="http://www.w3.org/2000/svg">
<path d="M2.59986 9.94817C1.74664 8.46038 1.33466 7.24554 1.08626 6.01409C0.718857 4.19282 1.55963 2.41373 2.95244 1.27852C3.54111 0.798743 4.21591 0.962669 4.564 1.58716L5.34986 2.99702C5.97276 4.11452 6.28421 4.67325 6.22243 5.26563C6.16066 5.85801 5.74063 6.34048 4.90057 7.30541L2.59986 9.94817ZM2.59986 9.94817C4.32686 12.9595 7.03706 15.6712 10.0518 17.4002M10.0518 17.4002C11.5396 18.2534 12.7545 18.6654 13.9859 18.9138C15.8072 19.2812 17.5863 18.4404 18.7215 17.0476C19.2012 16.459 19.0374 15.7841 18.4128 15.436L17.003 14.6501C15.8855 14.0272 15.3267 13.7158 14.7344 13.7776C14.142 13.8393 13.6595 14.2593 12.6946 15.0994L10.0518 17.4002Z" stroke="#393E51" stroke-linejoin="round"/>
</svg>
