<svg width="24" height="24" viewBox="0 0 24 24" fill="none" xmlns="http://www.w3.org/2000/svg">
<path d="M20.5248 4.05879C20.1482 3.74394 19.6307 3.66292 19.1771 3.8478L3.81963 10.099C3.14407 10.3793 2.82185 11.1587 3.09991 11.8398C3.24373 12.1921 3.53 12.4654 3.88659 12.5911L7.19966 13.7524L8.99515 19.7377C8.99876 19.7499 9.00985 19.7573 9.01451 19.7691C9.03308 19.8168 9.06023 19.8607 9.0945 19.8986C9.10727 19.9138 9.12118 19.9281 9.13604 19.9413C9.18077 19.9788 9.23272 20.0065 9.28859 20.0226C9.29712 20.0251 9.30282 20.0328 9.31151 20.0348L9.31653 20.0346L9.31904 20.0356C9.34766 20.0421 9.37685 20.0452 9.4061 20.0449C9.44434 20.0435 9.48227 20.0369 9.51868 20.0251C9.52574 20.0232 9.53286 20.0237 9.53976 20.0214C9.60197 19.9993 9.65816 19.963 9.70393 19.9152C9.70927 19.9098 9.71738 19.9088 9.7225 19.9031L12.3057 17.0295L16.0741 19.9715C16.3031 20.152 16.5854 20.2501 16.876 20.25C17.5046 20.2499 18.0473 19.8059 18.1768 19.1858L20.9734 5.34328C21.0703 4.86445 20.8979 4.37073 20.5248 4.05879ZM9.93266 14.8875L9.32647 17.8576L8.0623 13.6422L14.3322 10.3504L10.049 14.6689C9.98979 14.7287 9.94935 14.8047 9.93266 14.8875ZM17.3373 19.0119C17.3044 19.171 17.1918 19.3015 17.0401 19.3563C16.8919 19.4137 16.7244 19.3881 16.5998 19.2887L12.5167 16.1011C12.3399 15.9631 12.0876 15.9856 11.9374 16.1526L10.1411 18.1508L10.7463 15.1888L16.9079 8.97565C17.0753 8.80712 17.0756 8.53368 16.9084 8.36489C16.7762 8.23129 16.5733 8.19974 16.4073 8.28699L7.52439 12.9508L4.167 11.7742C3.984 11.7135 3.85954 11.5422 3.85729 11.348C3.84845 11.1524 3.96329 10.9726 4.14357 10.8999L19.4986 4.64955C19.659 4.58093 19.844 4.60968 19.9765 4.72382C20.1084 4.83111 20.1689 5.00417 20.133 5.17112L17.3373 19.0119Z" fill="#BDAA8A"/>
</svg>
