<svg width="24" height="24" viewBox="0 0 24 24" fill="none" xmlns="http://www.w3.org/2000/svg">
<path d="M0.5 6.5H4.5C4.5 6.5 6.81 12.5 9 12.5C9.41 12.5 9.5 11.75 9.5 9.5C9.5 7.25 8.91 6.5 8.5 6.5C8.5 6.09 9.28 5.5 11.5 5.5C13.72 5.5 13.5 5.56 13.5 6.5V10.5C13.5 11.66 13.88 12.5 14.5 12.5C15.12 12.5 18.72 8.06 19 6.5H23.5C23.5 7.03 19.5 12.56 19.5 13C19.5 13.44 23.5 17.5 23.5 18C23.5 18.5 22.63 18.5 21.5 18.5H19C18.41 18.5 15.84 15.5 14.5 15.5C13.16 15.5 14.22 18.5 13 18.5H11C7.28 18.5 1 9.41 0.5 6.5Z" stroke="#BDAA8A" stroke-linecap="round" stroke-linejoin="round"/>
</svg>
